<svg width="223" height="162" viewBox="0 0 223 162" fill="none" xmlns="http://www.w3.org/2000/svg">
<path fill-rule="evenodd" clip-rule="evenodd" d="M34.5969 26.0007C14.9715 40.1845 3 59.649 3 81C3 102.351 14.9715 121.815 34.5969 135.999C54.2203 150.182 81.4048 159 111.5 159C141.595 159 168.78 150.182 188.403 135.999C208.028 121.815 220 102.351 220 81C220 59.649 208.028 40.1845 188.403 26.0007C168.78 11.8184 141.595 3 111.5 3C81.4048 3 54.2203 11.8184 34.5969 26.0007ZM32.8396 23.5693C53.0284 8.97832 80.8438 0 111.5 0C142.156 0 169.972 8.97832 190.16 23.5693C210.347 38.1589 223 58.4444 223 81C223 103.556 210.347 123.841 190.16 138.431C169.972 153.022 142.156 162 111.5 162C80.8438 162 53.0284 153.022 32.8396 138.431C12.6528 123.841 0 103.556 0 81C0 58.4444 12.6528 38.1589 32.8396 23.5693ZM169.284 24.2566C80.8798 -10.2384 31.2812 37.9255 30.3528 38.8533C30.2788 38.9273 30.2707 38.9673 30.27 38.9704L30.2697 38.9724C30.2695 38.9745 30.2694 38.9771 30.2701 38.9813C30.2711 38.9877 30.2744 39.0017 30.2852 39.024C30.339 39.1352 30.5034 39.3074 30.8303 39.5153C31.4616 39.9169 32.4102 40.276 33.1581 40.5253C33.4091 40.609 33.7364 40.5991 34.3324 40.5197C34.45 40.504 34.576 40.486 34.7106 40.4668L34.7121 40.4666L34.7122 40.4666L34.7124 40.4666C35.228 40.393 35.8701 40.3014 36.6553 40.2507C38.6547 40.1217 41.5859 40.2546 46.1338 41.5179C50.5599 42.7474 58.2381 42.9993 64.198 43.1248C64.7383 43.1362 65.2647 43.1465 65.773 43.1565C68.045 43.2012 69.9565 43.2387 71.1397 43.3293C71.5027 43.357 71.8128 43.3908 72.0505 43.4344C72.1684 43.456 72.2829 43.4826 72.383 43.5174C72.4626 43.5451 72.6165 43.6048 72.7309 43.7373C72.7987 43.8158 72.8653 43.9352 72.8705 44.0892C72.8755 44.2404 72.8193 44.36 72.7647 44.438C72.6698 44.5735 72.532 44.6527 72.4492 44.6957C72.2596 44.794 71.9788 44.8874 71.6316 44.9821C70.1948 45.3739 68.4875 45.4994 66.6534 45.5464C65.8098 45.568 64.9302 45.5731 64.0311 45.5783L63.7862 45.5797C62.7998 45.5856 61.7897 45.5934 60.7651 45.6244C56.6575 45.7489 52.3919 46.2476 48.7572 48.4284C41.2027 52.9611 37.0279 53.0494 34.3143 51.9639C33.7831 51.7514 33.2285 51.4524 32.6596 51.1456L32.6595 51.1456C32.5236 51.0723 32.3869 50.9986 32.2495 50.9255C31.5223 50.5387 30.7391 50.1481 29.8418 49.849C28.0649 49.2567 25.7965 49.0084 22.6468 49.9776C21.1608 50.4348 19.488 51.7518 17.8175 53.8072C16.1566 55.8508 14.5378 58.5753 13.1454 61.7624C10.3599 68.138 8.50418 76.3092 8.99874 84.4694C9.39551 91.0162 10.9622 94.5891 12.6659 96.4217C14.1897 98.061 15.8471 98.3377 16.9997 98.1111V96.9997H13.9997H13.7923L13.6458 96.853L13.9997 96.4997L13.6458 96.853L13.6458 96.8529L13.6456 96.8527L13.6447 96.8518L13.6408 96.848L13.6241 96.8312L13.5461 96.7531L13.1462 96.3532C13.0331 96.2401 12.9693 96.087 12.9339 95.9945C12.8899 95.8796 12.8486 95.7416 12.8096 95.5903C12.7312 95.286 12.6522 94.8891 12.5768 94.4327C12.4256 93.5178 12.2834 92.3313 12.1888 91.1005C12.0942 89.8705 12.0461 88.5848 12.0861 87.4739C12.106 86.9186 12.1483 86.399 12.2198 85.9477C12.2903 85.5037 12.3939 85.0935 12.5526 84.7761C12.7691 84.3431 12.9775 83.5614 13.1817 82.5564C13.3603 81.6769 13.527 80.6739 13.6941 79.6682L13.6941 79.6681L13.7566 79.2925C13.9437 78.1701 14.1336 77.0608 14.3409 76.1679C14.4445 75.7216 14.5553 75.3165 14.6766 74.9843C14.7915 74.6701 14.9388 74.3536 15.1462 74.1461C15.1857 74.1067 15.2654 73.9813 15.3594 73.7049C15.4479 73.4449 15.5308 73.1078 15.6111 72.7063C15.7393 72.0651 15.8529 71.3026 15.9736 70.4921L15.9742 70.4877C16.0049 70.2819 16.036 70.073 16.0679 69.8623C16.2241 68.8316 16.3991 67.762 16.6327 66.8519C16.7496 66.3963 16.8841 65.9687 17.0437 65.5993C17.2012 65.2347 17.3956 64.8968 17.6462 64.6461C17.7804 64.512 17.9829 64.3648 18.2486 64.3595C18.5338 64.3538 18.7378 64.5121 18.8603 64.6588C18.9793 64.8015 19.0637 64.9796 19.1277 65.1518C19.1939 65.3301 19.2505 65.5358 19.3002 65.7574C19.4962 66.6315 19.6237 67.9335 19.7476 69.2659L19.7758 69.5697C19.8922 70.8256 20.0105 72.1028 20.1808 73.1457C20.2729 73.7097 20.377 74.1845 20.497 74.54C20.5569 74.7174 20.6163 74.8519 20.6725 74.9479C20.7307 75.0473 20.77 75.0789 20.7771 75.0836C21.3112 75.4397 21.6009 76.0953 21.7863 76.7646C21.9777 77.4553 22.0904 78.2876 22.1842 79.132C22.2146 79.4052 22.243 79.6794 22.2712 79.9527C22.332 80.54 22.3924 81.1237 22.4715 81.6881C22.5873 82.514 22.7371 83.2467 22.964 83.814C23.1909 84.381 23.3378 85.1988 23.436 86.1102C23.5355 87.0333 23.5891 88.0957 23.6122 89.1765C23.6584 91.3385 23.5829 93.6022 23.4989 95.029L23.4951 95.095L23.4741 95.1578L22.9741 96.6578L22.8602 96.9997H22.4998H19.4998V100.569C19.7175 100.602 20.0101 100.646 20.3584 100.701C21.1417 100.824 22.2074 100.996 23.3364 101.195C24.4647 101.393 25.6599 101.619 26.7008 101.847C27.3722 101.995 27.9957 102.147 28.4998 102.298L28.4998 99.9997H28.4946H28.4893H28.484H28.4787H28.4733H28.4679H28.4625H28.4571H28.4516H28.4461H28.4405H28.435H28.4294H28.4237H28.4181H28.4124H28.4067H28.4009H28.3951H28.3893H28.3835H28.3776H28.3717H28.3657H28.3598H28.3538H28.3477H28.3417H28.3356H28.3294H28.3233H28.3171H28.3108H28.3046H28.2983H28.292H28.2856H28.2792H28.2728H28.2663H28.2599H28.2533H28.2468H28.2402H28.2336H28.2269H28.2203H28.2136H28.2068H28.2H28.1932H28.1864H28.1795H28.1726H28.1656H28.1586H28.1516H28.1446H28.1375H28.1304H28.1232H28.1161H28.1088H28.1016H28.0943H28.087H28.0796H28.0722H28.0648H28.0574H28.0499H28.0423H28.0348H28.0272H28.0196H28.0119H28.0042H27.9965H27.9887H27.9809H27.973H27.9652H27.9573H27.9493H27.9413H27.9333H27.9253H27.9172H27.909H27.9009H27.8927H27.8845H27.8762H27.8679H27.8595H27.8512H27.8428H27.8343H27.8258H27.8173H27.8087H27.8001H27.7915H27.7828H27.7741H27.7654H27.7566H27.7478H27.739H27.7301H27.7211H27.7122H27.7032H27.6941H27.6851H27.6759H27.6668H27.6576H27.6484H27.6391H27.6298H27.6205H27.6111H27.6017H27.5922H27.5827H27.5732H27.5636H27.554H27.5444H27.5347H27.525H27.5152H27.5054H27.4956H27.4857H27.4758H27.4658H27.4558H27.4458H27.4357H27.4256H27.4154H27.4052H27.395H27.3847H27.3744H27.3641H27.3537H27.3432H27.3328H27.3223H27.3117H27.3011H27.2905H27.2798H27.2691H27.2584H27.2476H27.2367H27.2259H27.215H27.204H27.193H27.182H27.1709H27.1598H27.1486H27.1374H27.1262H27.1149H27.1036H27.0922H27.0808H27.0694H27.0579H27.0463H27.0348H27.0231H27.0115H26.9998C26.1985 99.9997 25.5911 99.6287 25.1665 99.0787C24.7558 98.5467 24.516 97.8516 24.3834 97.1558C24.1196 95.7715 24.2443 94.1837 24.525 93.3416C24.6149 93.0721 24.6253 92.6919 24.5725 92.2016C24.5316 91.8212 24.4588 91.4203 24.3827 91.001L24.3826 91.0005L24.3824 90.9992C24.3615 90.8839 24.3403 90.7671 24.3195 90.6491C24.226 90.1195 24.1391 89.5604 24.1479 89.0612C24.1565 88.5693 24.2587 88.0332 24.6458 87.6461C24.7485 87.5434 24.8438 87.2862 24.867 86.7589C24.8847 86.3576 24.8597 85.9002 24.8325 85.4014L24.8325 85.4013C24.8257 85.2782 24.8189 85.1526 24.8125 85.0246C24.7813 84.4016 24.762 83.7281 24.8573 83.1386C24.952 82.5537 25.1759 81.9477 25.722 81.5836C25.9506 81.4313 26.0882 81.196 26.166 80.8202C26.2473 80.4274 26.2494 79.9519 26.2494 79.3747L26.2493 79.3157C26.2491 78.2305 26.2487 76.8339 27.0994 75.6997L27.1422 75.6425L27.1994 75.5997C27.5504 75.3364 27.8301 74.771 28.0372 73.9274C28.2385 73.1073 28.3452 72.1413 28.4393 71.1999L28.4648 70.9436L28.4648 70.9436C28.5469 70.1138 28.6272 69.3012 28.7714 68.7095C28.849 68.3908 28.9616 68.0592 29.1567 67.8213C29.261 67.6941 29.4039 67.5751 29.5937 67.5144C29.7873 67.4525 29.9814 67.4666 30.1575 67.5253C30.8281 67.7489 31.0536 68.4406 31.1559 69.0225C31.2511 69.5644 31.2755 70.2402 31.3003 70.9284C31.304 71.029 31.3076 71.1298 31.3115 71.2305C31.3427 72.0425 31.3889 72.8824 31.5445 73.6681C31.7001 74.4537 31.9588 75.1485 32.3898 75.6873C33.4995 77.0745 33.4994 78.4757 33.4994 79.5379V79.5622C33.4994 80.1144 33.5036 80.5181 33.603 80.8474C33.6895 81.1339 33.8499 81.3659 34.223 81.5525C35.5187 82.2003 35.6244 83.5135 35.6244 84.6247C35.6244 84.8301 35.6207 85.029 35.6171 85.2242C35.6103 85.5998 35.6036 85.9621 35.6236 86.3321C35.6532 86.8792 35.7404 87.3637 35.9466 87.7761C36.5454 88.9737 36.2253 90.153 35.9112 91.0953C35.8675 91.2265 35.8244 91.3516 35.7828 91.4722L35.7828 91.4723L35.7827 91.4724C35.6669 91.8086 35.5634 92.1089 35.4938 92.4037C35.4013 92.7952 35.3913 93.0945 35.4737 93.3416C35.7278 94.1039 35.8744 94.6664 35.8744 95.3122C35.8744 95.9436 35.7337 96.6236 35.4844 97.6209C35.2177 98.6877 34.1955 99.2642 33.2562 99.5744C32.4924 99.8267 31.6617 99.945 30.9994 99.9842L30.9994 102H31.0046H31.0099H31.0152H31.0205H31.0259H31.0312H31.0367H31.0421H31.0476H31.0531H31.0586H31.0642H31.0698H31.0754H31.0811H31.0868H31.0925H31.0983H31.1041H31.1099H31.1157H31.1216H31.1275H31.1335H31.1394H31.1454H31.1515H31.1575H31.1636H31.1698H31.1759H31.1821H31.1883H31.1946H31.2009H31.2072H31.2136H31.22H31.2264H31.2328H31.2393H31.2458H31.2524H31.259H31.2656H31.2722H31.2789H31.2856H31.2924H31.2992H31.306H31.3128H31.3197H31.3266H31.3336H31.3405H31.3476H31.3546H31.3617H31.3688H31.3759H31.3831H31.3904H31.3976H31.4049H31.4122H31.4196H31.4269H31.4344H31.4418H31.4493H31.4568H31.4644H31.472H31.4796H31.4873H31.495H31.5027H31.5105H31.5183H31.5261H31.534H31.5419H31.5499H31.5579H31.5659H31.5739H31.582H31.5901H31.5983H31.6065H31.6147H31.623H31.6313H31.6396H31.648H31.6564H31.6649H31.6734H31.6819H31.6904H31.699H31.7077H31.7163H31.725H31.7338H31.7426H31.7514H31.7602H31.7691H31.778H31.787H31.796H31.8051H31.8141H31.8232H31.8324H31.8416H31.8508H31.8601H31.8694H31.8787H31.8881H31.8975H31.907H31.9165H31.926H31.9356H31.9452H31.9548H31.9645H31.9742H31.984H31.9938H32.0036H32.0135H32.0234H32.0334H32.0434H32.0534H32.0635H32.0736H32.0838H32.0939H32.1042H32.1116C32.3654 101.254 32.9379 100.639 33.6344 100.189C34.4621 99.6544 35.5149 99.318 36.5932 99.2506C38.4887 99.1322 40.5544 99.8531 41.5989 101.902C41.9239 101.522 42.3369 101.186 42.8002 100.913C43.6145 100.433 44.6234 100.125 45.6869 100.125C47.7277 100.125 49.8758 101.254 51.2177 104.225C52.8855 103.11 54.2918 103.055 55.3937 103.632C56.3613 104.138 56.9819 105.077 57.3164 105.898C57.8468 105.788 58.516 105.743 59.1795 105.886C59.9084 106.043 60.6351 106.429 61.1377 107.188C61.3279 107.072 61.5475 106.975 61.7819 106.894C62.3125 106.711 62.9703 106.596 63.6631 106.563C64.8435 106.507 66.224 106.687 67.3081 107.284C68.0954 105.995 69.5411 105.203 70.9791 104.725C72.3931 104.255 73.8922 104.056 74.9994 104.01V98.9997V98.9116L75.0295 98.8288L79.0295 87.8288L79.5309 86.4498L79.9759 87.8481L83.4759 98.8481L83.4994 98.922V98.9997V108H84.5131L84.9996 90.4858L85.0022 90.3916L85.0389 90.3049L90.5389 77.3049L91.0461 76.106L91.4719 77.3361L95.9719 90.3361L95.9994 90.4156V90.4997V100.917C97.1734 100.751 99.1934 100.527 101.146 100.502C101.672 99.1213 102.469 98.1821 103.558 97.8916C104.539 97.63 105.608 97.9359 106.694 98.6569C106.991 97.6692 107.467 96.8348 108.12 96.3002C108.533 95.9627 109.016 95.7461 109.556 95.697C110.094 95.6481 110.655 95.7685 111.223 96.0525C111.663 96.2724 111.963 96.4786 112.172 96.6615C112.29 96.5197 112.443 96.349 112.646 96.1461C113.031 95.7606 113.66 95.4663 114.343 95.2315C115.044 94.9904 115.875 94.7884 116.728 94.6215C118.226 94.3285 119.831 94.137 120.999 94.0374V90.9997H120.5H120V90.4997V88.4997V87.9997H120.5H120.999V85.2828L116.242 82.4284L115.693 82.0989L116.146 81.6461L120.964 76.8276L114.181 79.4657L113.553 79.7099L113.501 79.038L113.001 72.538L112.959 71.9997H113.499H119.246L113.788 69.4528L113.285 69.2182L113.571 68.7424L116.571 63.7424L116.871 63.2418L117.319 63.6156L121.969 67.4904L120.025 61.6578L119.843 61.1109L120.41 61.0077L125.91 60.0077L126.465 59.9067L126.499 60.4703L126.867 66.7343L129.035 61.314L129.23 60.8278L129.706 61.0445L135.206 63.5445L135.786 63.8079L135.393 64.3086L130.996 69.9045L137.324 67.5315L137.884 67.3214L137.991 67.9102L138.991 73.4102L139.086 73.9303L138.561 73.9958L132.284 74.7805L138.211 77.5466L138.858 77.8485L138.353 78.3532L134.353 82.3532L133.982 82.724L133.629 82.336L129.792 78.1151L130.992 84.9128L131.095 85.4997H130.499H129.999V87.9997H130.499H130.98L130.999 88.4797L131.292 95.8032C131.633 95.4543 132.084 95.0147 132.623 94.5041C134.02 93.1786 136.034 91.3466 138.303 89.3147C142.844 85.2497 148.421 80.3727 152.172 77.1218L152.412 76.9137L152.702 77.0428L179.125 88.7863C179.629 86.1474 180.369 82.5374 181.089 79.5814C181.477 77.9869 181.863 76.5669 182.206 75.5902C182.374 75.1098 182.545 74.7001 182.716 74.4292C182.794 74.3049 182.914 74.1403 183.088 74.0422C183.186 73.9869 183.323 73.9409 183.483 73.9611C183.645 73.9816 183.769 74.0618 183.853 74.1461C183.978 74.2713 184.066 74.4548 184.129 74.6017C184.201 74.77 184.275 74.9805 184.351 75.2224C184.505 75.7074 184.677 76.3541 184.862 77.1178C185.233 78.6472 185.662 80.6771 186.102 82.8896C186.892 86.8588 187.718 91.4332 188.301 94.8013C189.414 93.3801 190.831 91.5941 192.087 90.0581C192.855 89.1192 193.566 88.2694 194.113 87.6526C194.385 87.3452 194.622 87.0888 194.808 86.9064C194.9 86.8164 194.988 86.7351 195.068 86.6731C195.107 86.6425 195.155 86.608 195.208 86.5788C195.246 86.5584 195.355 86.4997 195.499 86.4997C195.613 86.4997 195.702 86.5346 195.747 86.554C195.799 86.5768 195.846 86.6042 195.884 86.6287C195.96 86.6779 196.041 86.7412 196.12 86.8086C196.281 86.945 196.48 87.1345 196.702 87.3579C197.149 87.8068 197.721 88.4235 198.333 89.1024C199.26 90.1302 200.288 91.3123 201.132 92.2971C201.408 89.9585 201.858 86.7163 202.445 83.461C203.132 79.6435 204.015 75.7624 205.038 73.3074C205.174 72.9809 205.329 72.7035 205.513 72.4955C205.699 72.2849 205.942 72.1163 206.246 72.0843C206.549 72.0522 206.815 72.1672 207.025 72.3231C207.233 72.4768 207.417 72.6921 207.583 72.9336C208.234 73.8809 208.878 75.6535 209.48 77.7491C210.539 81.4338 211.532 86.343 212.211 90.2507C214.158 84.986 213.557 78.1719 211.865 71.5484C210.049 64.4372 207.006 57.6611 204.705 53.4996C203.874 53.4988 202.44 53.4924 201.104 53.4367C200.349 53.4053 199.614 53.3577 199.031 53.2849C198.741 53.2486 198.475 53.2045 198.259 53.1492C198.15 53.1216 198.044 53.0886 197.948 53.0477C197.859 53.0097 197.743 52.9502 197.646 52.8532C197.565 52.7727 197.446 52.6377 197.291 52.4616C196.836 51.9441 196.069 51.0723 195.048 50.1906C193.687 49.0154 192.057 47.9997 190.499 47.9997H190.479H190.458H190.438H190.418H190.397H190.377H190.357H190.337H190.317H190.297H190.277H190.257H190.237H190.217H190.197H190.177H190.157H190.138H190.118H190.098H190.079H190.059H190.04H190.02H190.001H189.981H189.962H189.943H189.923H189.904H189.885H189.866H189.847H189.828H189.809H189.79H189.771H189.752H189.733H189.714H189.696H189.677H189.658H189.64H189.621H189.603H189.584H189.566H189.547H189.529H189.511H189.492H189.474H189.456H189.438H189.419H189.401H189.383H189.365H189.347H189.329H189.311H189.294H189.276H189.258H189.24H189.222H189.205H189.187H189.17H189.152H189.135H189.117H189.1H189.082H189.065H189.047H189.03H189.013H188.996H188.979H188.961H188.944H188.927H188.91H188.893H188.876H188.859H188.842H188.825H188.809H188.792H188.775H188.758H188.742H188.725H188.708H188.692H188.675H188.659H188.642H188.626H188.61H188.593H188.577H188.561H188.544H188.528H188.512H188.496H188.48H188.463H188.447H188.431H188.415H188.399H188.383H188.368H188.352H188.336H188.32H188.304H188.289H188.273H188.257H188.242H188.226H188.21H188.195H188.179H188.164H188.148H188.133H188.117H188.102H188.087H188.072H188.056H188.041H188.026H188.011H187.995H187.98H187.965H187.95H187.935H187.92H187.905H187.89H187.875H187.86H187.846H187.831H187.816H187.801H187.786H187.772H187.757H187.742H187.728H187.713H187.699H187.684H187.67H187.655H187.641H187.626H187.612H187.597H187.583H187.569H187.554H187.54H187.526H187.512H187.497H187.483H187.469H187.455H187.441H187.427H187.413H187.399H187.385H187.371H187.357H187.343H187.329H187.315H187.301H187.288H187.274H187.26H187.246H187.233H187.219H187.205H187.192H187.178H187.164H187.151H187.137H187.124H187.11H187.097H187.083H187.07H187.056H187.043H187.03H187.016H187.003H186.99H186.976H186.963H186.95H186.937H186.923H186.91H186.897H186.884H186.871H186.858H186.845H186.832H186.819H186.806H186.793H186.78H186.767H186.754H186.741H186.728H186.715H186.702H186.689H186.677H186.664H186.651H186.638H186.626H186.613H186.6H186.588H186.575H186.562H186.55H186.537H186.524H186.512H186.499H186.487H186.474H186.462H186.449H186.437H186.424H186.412H186.4H186.387H186.375H186.362H186.35H186.338H186.326H186.313H186.301H186.289H186.276H186.264H186.252H186.24H186.228H186.215H186.203H186.191H186.179H186.167H186.155H186.143H186.131H186.119H186.107H186.095H186.083H186.071H186.059H186.047H186.035H186.023H186.011H185.999H185.987H185.975H185.963H185.951H185.94H185.928H185.916H185.904H185.892H185.88H185.869H185.857H185.845H185.833H185.822H185.81H185.798H185.787H185.775H185.763H185.752H185.74H185.728H185.717H185.705H185.693H185.682H185.67H185.659H185.647H185.636H185.624H185.612H185.601H185.589H185.578H185.566H185.555H185.543H185.532H185.521H185.509H185.498H185.486H185.475H185.463H185.452H185.44H185.429H185.418H185.406H185.395H185.384H185.372H185.361H185.35H185.338H185.327H185.316H185.304H185.293H185.282H185.27H185.259H185.248H185.236H185.225H185.214H185.203H185.191H185.18H185.169H185.158H185.146H185.135H185.124H185.113H185.101H185.09H185.079H185.068H185.057H185.045H185.034H185.023H185.012H185.001H184.989H184.978H184.967H184.956H184.945H184.934H184.922H184.911H184.9H184.889H184.878H184.867H184.855H184.844H184.833H184.822H184.811H184.8H184.789H184.777H184.766H184.755H184.744H184.733H184.722H184.711H184.699H184.688H184.677H184.666H184.655H184.644H184.633H184.622H184.61H184.599H184.588H184.577H184.566H184.555H184.544H184.532H184.521H184.51H184.499H184.488H184.477H184.466H184.454H184.443H184.432H184.421H184.41H184.399H184.387H184.376H184.365H184.354H184.343H184.332H184.32H184.309H184.298H184.287H184.276H184.264H184.253H184.242H184.231H184.22H184.208H184.197H184.186H184.175H184.163H184.152H184.141H184.13H184.118H184.107H184.096H184.085H184.073H184.062H184.051H184.039H184.028H184.017H184.006H183.994H183.983H183.972H183.96H183.949H183.937H183.926H183.915H183.903H183.892H183.881H183.869H183.858H183.846H183.835H183.823H183.812H183.801H183.789H183.778H183.766H183.755H183.743H183.732H183.72H183.709H183.697H183.685H183.674H183.662H183.651H183.639H183.628H183.616H183.604H183.593H183.581H183.569H183.558H183.546H183.534H183.523H183.511H183.499C183.113 47.9997 182.737 47.8348 182.399 47.6312C182.052 47.4227 181.686 47.1362 181.31 46.8196C181.036 46.5889 180.757 46.343 180.469 46.0886L180.469 46.0885L180.468 46.088L180.468 46.0878C179.939 45.6216 179.378 45.1269 178.756 44.645C176.85 43.1693 174.665 42.0623 172.17 42.9696C169.414 43.9717 165.631 45.234 162.087 45.8669C160.316 46.1832 158.583 46.3463 157.056 46.2327C155.536 46.1194 154.163 45.7275 153.174 44.8793C151.478 43.4253 148.781 41.9492 145.967 40.5739C144.567 39.8892 143.15 39.2352 141.829 38.6255L141.823 38.6227L141.82 38.6216L141.819 38.621C140.505 38.0144 139.282 37.4499 138.276 36.9469C137.366 36.4919 135.669 36.1535 133.493 35.9187C131.341 35.6864 128.794 35.5619 126.237 35.4995C122.465 35.4075 118.702 35.4512 116.176 35.4806L116.174 35.4806L116.17 35.4806C115.271 35.4911 114.529 35.4997 114 35.4997C113.178 35.4997 112.547 35.4359 112.072 35.3218C111.605 35.2099 111.234 35.037 110.994 34.7757C110.729 34.4877 110.668 34.1421 110.743 33.8292C110.811 33.5445 110.982 33.3101 111.146 33.1461C111.248 33.0444 111.38 32.9682 111.506 32.9087C111.641 32.8453 111.806 32.7838 112.001 32.7245C112.391 32.6056 112.932 32.4865 113.651 32.3801C115.092 32.167 117.284 31.9997 120.5 31.9997C127.233 31.9997 137.898 30.5734 143.462 29.8292L143.463 29.8291C144.475 29.6938 145.318 29.581 145.938 29.5035C146.841 29.3906 147.835 28.9604 148.963 28.3693C149.378 28.1518 149.817 27.9088 150.273 27.6569L150.273 27.6565L150.273 27.6564C151.015 27.2463 151.8 26.8122 152.593 26.4253C155.202 25.1526 158.236 24.2088 161.679 25.533C164.183 26.4961 166.008 26.3553 167.262 25.8486C168.245 25.4513 168.906 24.8179 169.284 24.2566ZM131.48 100.5H132.499V97.4997H132.498H132.495H132.491H132.487H132.484H132.48H132.476H132.472H132.469H132.465H132.461H132.457H132.454H132.45H132.446H132.442H132.439H132.435H132.431H132.427H132.423H132.42H132.416H132.412H132.408H132.404H132.4H132.397H132.393H132.389H132.385H132.381H132.377H132.373H132.369H132.365H132.361H132.358H132.354H132.35H132.346H132.342H132.338H132.334H132.33H132.326H132.322H132.318H132.314H132.31H132.306H132.302H132.298H132.294H132.29H132.286H132.282H132.278H132.274H132.27H132.265H132.261H132.257H132.253H132.249H132.245H132.241H132.237H132.233H132.229H132.224H132.22H132.216H132.212H132.208H132.204H132.199H132.195H132.191H132.187H132.183H132.179H132.174H132.17H132.166H132.162H132.158H132.153H132.149H132.145H132.141H132.136H132.132H132.128H132.124H132.119H132.115H132.111H132.107H132.102H132.098H132.094H132.089H132.085H132.081H132.076H132.072H132.068H132.063H132.059H132.055H132.05H132.046H132.042H132.037H132.033H132.029H132.024H132.02H132.016H132.011H132.007H132.002H131.998H131.994H131.989H131.985H131.98H131.976H131.972H131.967H131.963H131.958H131.954H131.949H131.945H131.941H131.936H131.932H131.927H131.923H131.918H131.914H131.909H131.905H131.9H131.896H131.891H131.887H131.882H131.878H131.873H131.869H131.864H131.86H131.855H131.851H131.846H131.842H131.837H131.833H131.828H131.824H131.819H131.815H131.81H131.805H131.801H131.796H131.792H131.787H131.783H131.778H131.774H131.769H131.764H131.76H131.755H131.751H131.746H131.741H131.737H131.732H131.728H131.723H131.718H131.714H131.709H131.705H131.7H131.695H131.691H131.686H131.681H131.677H131.672H131.668H131.663H131.658H131.654H131.649H131.644H131.64H131.635H131.63H131.626H131.621H131.617H131.612H131.607H131.603H131.598H131.593H131.589H131.584H131.579H131.575H131.57H131.565H131.56H131.556H131.551H131.546H131.542H131.537H131.532H131.528H131.523H131.518H131.514H131.509H131.504H131.5H131.495H131.49H131.485H131.481H131.476H131.471H131.467H131.462H131.457H131.452H131.448H131.443H131.438H131.434H131.429H131.424H131.419H131.415H131.41H131.405H131.401H131.396H131.391H131.386H131.382H131.377H131.372H131.368H131.363H131.36L131.48 100.5ZM131.426 97.1556C131.426 97.1547 131.428 97.1523 131.43 97.1482C131.427 97.1544 131.425 97.157 131.426 97.1556ZM132.01 96.4997H132.011H132.016H132.02H132.024H132.029H132.033H132.037H132.042H132.046H132.05H132.055H132.059H132.063H132.068H132.072H132.076H132.081H132.085H132.089H132.094H132.098H132.102H132.107H132.111H132.115H132.119H132.124H132.128H132.132H132.136H132.141H132.145H132.149H132.153H132.158H132.162H132.166H132.17H132.174H132.179H132.183H132.187H132.191H132.195H132.199H132.204H132.208H132.212H132.216H132.22H132.224H132.229H132.233H132.237H132.241H132.245H132.249H132.253H132.257H132.261H132.265H132.27H132.274H132.278H132.282H132.286H132.29H132.294H132.298H132.302H132.306H132.31H132.314H132.318H132.322H132.326H132.33H132.334H132.338H132.342H132.346H132.35H132.354H132.358H132.361H132.365H132.369H132.373H132.377H132.381H132.385H132.389H132.393H132.397H132.4H132.404H132.408H132.412H132.416H132.42H132.423H132.427H132.431H132.435H132.439H132.442H132.446H132.45H132.454H132.457H132.461H132.465H132.469H132.472H132.476H132.48H132.484H132.487H132.491H132.495H132.498H132.502H132.506H132.509H132.513H132.517H132.52H132.524H132.527H132.531H132.535H132.538H132.542H132.545H132.549H132.553H132.556H132.56H132.563H132.567H132.57H132.574H132.577H132.581H132.584H132.588H132.591H132.595H132.598H132.602H132.605H132.608H132.612H132.615H132.619H132.622H132.625H132.629H132.632H132.635H132.639H132.642H132.646H132.649H132.652H132.655H132.659H132.662H132.665H132.669H132.672H132.675H132.678H132.682H132.685H132.688H132.691H132.694H132.698H132.701H132.704H132.707H132.71H132.714H132.717H132.72H132.723H132.726H132.729H132.732H132.735H132.738H132.741H132.744H132.748H132.751H132.754H132.757H132.76H132.763H132.766H132.769H132.772H132.774H132.777H132.78H132.783H132.786H132.789H132.792H132.795H132.798H132.801H132.804H132.806H132.809H132.812H132.815H132.818H132.82H132.823H132.826H132.829H132.832H132.834H132.837H132.84H132.842H132.845H132.848H132.851H132.853H132.856H132.859H132.861H132.864H132.866H132.869H132.872H132.874H132.877H132.879H132.882H132.885H132.887H132.89H132.892H132.895H132.897H132.9H132.902H132.904H132.907H132.909H132.912H132.914H132.917H132.919H132.921H132.924H132.926H132.928H132.931H132.933H132.935H132.938H132.94H132.942H132.945H132.947H132.949H132.951H132.954H132.956H132.958H132.96H132.962H132.964H132.967H132.969H132.971H132.973H132.975H132.977H132.979H132.981H132.983H132.985H132.987H132.989H132.991H132.993H132.995H132.997H132.999H133.499V96.9997V101V101.5H132.999H130.999H130.519L130.5 101.02L130.019 88.9997H129.499H128.999V88.4997V84.9997V84.4997H129.499H129.903L128.507 76.5866L128.207 74.8843L129.369 76.1633L134.017 81.2753L137.141 78.1509L130.288 74.9528L128.715 74.2188L130.437 74.0035L137.913 73.0691L137.115 68.678L129.675 71.4678L128.003 72.0948L129.106 70.6908L134.213 64.1914L129.769 62.1715L126.964 69.1854L126 69.029L125.533 61.0926L121.156 61.8885L123.474 68.8416L124.029 70.5089L122.679 69.3838L117.128 64.7575L114.714 68.7812L121.711 72.0466L121.499 72.9997H114.039L114.446 78.2894L122.818 75.0337L123.353 75.8532L117.306 81.9004L121.757 84.5709L121.999 84.7166V84.9997V88.4997V88.9997H121.499H121V89.9997H121.499H121.999V90.4997V94.4997V94.9652L121.535 94.9984C120.383 95.0807 118.579 95.2785 116.92 95.6029C116.09 95.7652 115.309 95.9568 114.668 96.1772C114.009 96.4039 113.567 96.6388 113.353 96.8532C112.999 97.2069 112.832 97.4332 112.748 97.5554C112.738 97.57 112.729 97.5833 112.721 97.596L112.697 97.6324L112.692 97.6398L112.69 97.6433C112.682 97.6555 112.67 97.6733 112.657 97.6923C112.648 97.7046 112.639 97.7174 112.629 97.7295C112.621 97.7402 112.609 97.7558 112.592 97.7736C112.582 97.7847 112.57 97.7966 112.557 97.8087C112.524 97.8386 112.457 97.892 112.358 97.923C112.086 98.0077 111.892 97.8494 111.833 97.7908C111.786 97.7434 111.751 97.6889 111.743 97.6767L111.742 97.6748L111.731 97.6582C111.725 97.65 111.721 97.643 111.716 97.6357C111.713 97.631 111.709 97.6262 111.706 97.6209C111.684 97.5894 111.649 97.5443 111.591 97.4861C111.473 97.368 111.239 97.1785 110.776 96.9469C110.344 96.7308 109.968 96.6637 109.646 96.6929C109.327 96.722 109.029 96.8492 108.754 97.0742C108.191 97.5347 107.728 98.4071 107.49 99.5977L107.329 100.403L106.687 99.8901C105.484 98.9274 104.524 98.6688 103.816 98.8578C103.117 99.044 102.452 99.7237 101.974 101.158L101.86 101.5H101.499C99.1355 101.5 96.5645 101.829 95.5816 101.993L94.9994 102.09V101.5V90.5838L90.9527 78.8933L85.9966 90.6077L85.4992 108.514L85.4857 109H84.9994H82.9994H82.4994V108.5V99.0773L79.4678 89.5495L75.9994 99.0878V104.5V105H75.4994C74.4575 105 72.8125 105.17 71.2946 105.674C69.7582 106.185 68.4731 106.997 67.959 108.197L67.7083 108.781L67.1994 108.4C66.3319 107.749 64.9681 107.502 63.7107 107.562C63.091 107.591 62.53 107.694 62.1075 107.84C61.896 107.912 61.732 107.991 61.6158 108.068C61.4953 108.148 61.4555 108.206 61.4466 108.223L60.9487 109.219L60.5352 108.185C60.2076 107.366 59.6117 107.002 58.9693 106.863C58.3019 106.72 57.5947 106.828 57.1575 106.974L56.6686 107.137L56.5205 106.643C56.2905 105.877 55.751 104.947 54.9301 104.518C54.1708 104.12 53.0072 104.071 51.3064 105.394L50.7746 105.808L50.5327 105.179C49.3466 102.095 47.39 101.125 45.6869 101.125C44.8128 101.125 43.978 101.379 43.308 101.774C42.6315 102.173 42.1614 102.691 41.9636 103.185L41.4319 104.515L41.0205 103.143C40.3549 100.925 38.4912 100.134 36.6556 100.249C35.7339 100.306 34.8492 100.595 34.1769 101.029C33.4996 101.467 33.0868 102.016 32.9926 102.582L32.923 103H32.4994H32.4877H32.476H32.4644H32.4529H32.4413H32.4298H32.4184H32.407H32.3956H32.3843H32.373H32.3618H32.3506H32.3394H32.3283H32.3172H32.3062H32.2952H32.2842H32.2733H32.2624H32.2516H32.2408H32.2301H32.2194H32.2087H32.1981H32.1875H32.1769H32.1664H32.1559H32.1455H32.1351H32.1248H32.1145H32.1042H32.0939H32.0838H32.0736H32.0635H32.0534H32.0434H32.0334H32.0234H32.0135H32.0036H31.9938H31.984H31.9742H31.9645H31.9548H31.9452H31.9356H31.926H31.9165H31.907H31.8975H31.8881H31.8787H31.8694H31.8601H31.8508H31.8416H31.8324H31.8232H31.8141H31.8051H31.796H31.787H31.778H31.7691H31.7602H31.7514H31.7426H31.7338H31.725H31.7163H31.7077H31.699H31.6904H31.6819H31.6734H31.6649H31.6564H31.648H31.6396H31.6313H31.623H31.6147H31.6065H31.5983H31.5901H31.582H31.5739H31.5659H31.5579H31.5499H31.5419H31.534H31.5261H31.5183H31.5105H31.5027H31.495H31.4873H31.4796H31.472H31.4644H31.4568H31.4493H31.4418H31.4344H31.4269H31.4196H31.4122H31.4049H31.3976H31.3904H31.3831H31.3759H31.3688H31.3617H31.3546H31.3476H31.3405H31.3336H31.3266H31.3197H31.3128H31.306H31.2992H31.2924H31.2856H31.2789H31.2722H31.2656H31.259H31.2524H31.2458H31.2393H31.2328H31.2264H31.22H31.2136H31.2072H31.2009H31.1946H31.1883H31.1821H31.1759H31.1698H31.1636H31.1575H31.1515H31.1454H31.1394H31.1335H31.1275H31.1216H31.1157H31.1099H31.1041H31.0983H31.0925H31.0868H31.0811H31.0754H31.0698H31.0642H31.0586H31.0531H31.0476H31.0421H31.0367H31.0312H31.0259H31.0205H31.0152H31.0099H31.0046H30.9994H30.9942H30.989H30.9838H30.9787H30.9736H30.9686H30.9635H30.9585H30.9536H30.9486H30.9437H30.9388H30.934H30.9292H30.9244H30.9196H30.9149H30.9101H30.9055H30.9008H30.8962H30.8916H30.887H30.8825H30.878H30.8735H30.869H30.8646H30.8602H30.8558H30.8515H30.8472H30.8429H30.8386H30.8344H30.8302H30.826H30.8219H30.8177H30.8136H30.8096H30.8055H30.8015H30.7975H30.7936H30.7896H30.7857H30.7818H30.778H30.7742H30.7704H30.7666H30.7628H30.7591H30.7554H30.7517H30.7481H30.7445H30.7409H30.7373H30.7338H30.7303H30.7268H30.7233H30.7199H30.7165H30.7131H30.7097H30.7064H30.7031H30.6998H30.6965H30.6933H30.6901H30.6869H30.6837H30.6806H30.6775H30.6744H30.6713H30.6683H30.6653H30.6623H30.6593H30.6564H30.6535H30.6506H30.6477H30.6449H30.642H30.6392H30.6365H30.6337H30.631H30.6283H30.6256H30.6229H30.6203H30.6177H30.6151H30.6126H30.61H30.6075H30.605H30.6025H30.6001H30.5977H30.5953H30.5929H30.5905H30.5882H30.5859H30.5836H30.5813H30.5791H30.5768H30.5746H30.5724H30.5703H30.5682H30.566H30.5639H30.5619H30.5598H30.5578H30.5558H30.5538H30.5518H30.5499H30.548H30.5461H30.5442H30.5423H30.5405H30.5387H30.5369H30.5351H30.5333H30.5316H30.5299H30.5282H30.5265H30.5249H30.5232H30.5216H30.52H30.5185H30.5169H30.5154H30.5139H30.5124H30.5109H30.5095H30.508H30.5066H30.5052H30.5038H30.5025H30.5011H30.4998H30.4994H30.4985H30.4984H30.4974H30.4972H30.4965H30.496H30.4955H30.4947H30.4946H30.4937H30.4935H30.4927H30.4923H30.4918H30.4911H30.4909H30.49H30.4891H30.4888H30.4882H30.4877H30.4874H30.4866H30.4865H30.4856H30.4855H30.4848H30.4844H30.4839H30.4833H30.4831H30.4823H30.4815H30.4813H30.4807H30.4803H30.4799H30.4793H30.4791H30.4783H30.4775H30.4774H30.4768H30.4765H30.476H30.4755H30.4753H30.4746H30.4745H30.4738H30.4738H30.4731H30.4729H30.4724H30.4721H30.4717H30.4712H30.471H30.4704H30.4704H30.4697H30.4696H30.469H30.4689H30.4684H30.4681H30.4678H30.4674H30.4671H30.4666H30.4665H30.4659H30.4653H30.4652H30.4648H30.4646H30.4642H30.4639H30.4636H30.4633H30.4631H30.4627H30.4625H30.462H30.4615H30.461H30.4609H30.4605H30.4603H30.46H30.4598H30.4595H30.4593H30.4591H30.4587H30.4586H30.4583H30.4582H30.4578H30.4573H30.4569H30.4569H30.4565H30.4564H30.4562H30.456H30.4558H30.4556H30.4554H30.4552H30.4551H30.4549H30.4548H30.4545H30.4544H30.4542H30.4541H30.4538H30.4536H30.4533H30.453H30.4528H30.4525H30.4523H30.4521H30.452H30.4519H30.4518H30.4517H30.4517H30.4516H30.4515H30.4514H30.4513H30.4513H30.4512H30.4511H30.451H30.4507H30.4506H30.4505L30.4506 102.5H29.9994V99.4997V98.9997H30.4994C31.129 98.9997 32.0982 98.9038 32.9426 98.6249C33.8199 98.3351 34.381 97.9116 34.5143 97.3784C34.765 96.3757 34.8744 95.8057 34.8744 95.3122C34.8744 94.8329 34.7709 94.3955 34.525 93.6578C34.3574 93.1548 34.41 92.6417 34.5206 92.1737C34.6028 91.8258 34.7301 91.4568 34.8508 91.1067C34.8892 90.9951 34.927 90.8855 34.9625 90.7791C35.2734 89.8464 35.4533 89.0257 35.0521 88.2233C34.7583 87.6356 34.658 86.9952 34.6251 86.386C34.6032 85.9814 34.6108 85.5539 34.6179 85.1566V85.1565C34.6212 84.9708 34.6244 84.7917 34.6244 84.6247C34.6244 83.4859 34.4801 82.799 33.7758 82.4469C33.1488 82.1334 32.8092 81.6779 32.6457 81.1364C32.4991 80.6508 32.4992 80.1027 32.4994 79.6033L32.4994 79.5622C32.4994 78.5022 32.4907 77.4143 31.6089 76.312C31.04 75.6008 30.7361 74.7331 30.5636 73.8625C30.3911 72.9919 30.3435 72.0819 30.3122 71.2689C30.3082 71.1645 30.3045 71.0621 30.3008 70.9619C30.2751 70.2607 30.2532 69.6638 30.171 69.1956C30.0905 68.7375 29.9791 68.568 29.8971 68.5047C29.8539 68.5804 29.7984 68.7186 29.743 68.9461C29.6166 69.465 29.5432 70.2043 29.458 71.0619L29.4344 71.2994C29.341 72.2331 29.229 73.267 29.0084 74.1657C28.8006 75.0123 28.4708 75.8559 27.862 76.3507C27.2649 77.1879 27.2494 78.2411 27.2494 79.3747V79.406C27.2494 79.9448 27.2494 80.5192 27.1452 81.0229C27.0355 81.5533 26.7981 82.0681 26.2767 82.4157C26.0728 82.5516 25.9218 82.8207 25.8445 83.2983C25.768 83.7713 25.7799 84.3478 25.8112 84.9747C25.8169 85.0888 25.8233 85.2051 25.8298 85.3223C25.8575 85.8252 25.8862 86.3471 25.8661 86.803C25.8424 87.3382 25.7502 87.956 25.3529 88.3532C25.24 88.4662 25.1547 88.68 25.1477 89.0788C25.1409 89.4702 25.2102 89.9424 25.3043 90.4753C25.3228 90.5804 25.3424 90.688 25.3622 90.7973L25.3629 90.8011L25.363 90.8019C25.4401 91.226 25.5215 91.6744 25.5668 92.0946C25.6234 92.6199 25.6339 93.1773 25.4737 93.6578C25.2544 94.3157 25.1293 95.7278 25.3657 96.9686C25.4832 97.5852 25.6811 98.1089 25.958 98.4676C26.221 98.8082 26.5511 98.9997 26.9998 98.9997H27.0115H27.0231H27.0348H27.0463H27.0579H27.0694H27.0808H27.0922H27.1036H27.1149H27.1262H27.1374H27.1486H27.1598H27.1709H27.182H27.193H27.204H27.215H27.2259H27.2367H27.2476H27.2584H27.2691H27.2798H27.2905H27.3011H27.3117H27.3223H27.3328H27.3432H27.3537H27.3641H27.3744H27.3847H27.395H27.4052H27.4154H27.4256H27.4357H27.4458H27.4558H27.4658H27.4758H27.4857H27.4956H27.5054H27.5152H27.525H27.5347H27.5444H27.554H27.5636H27.5732H27.5827H27.5922H27.6017H27.6111H27.6205H27.6298H27.6391H27.6484H27.6576H27.6668H27.6759H27.6851H27.6941H27.7032H27.7122H27.7211H27.7301H27.739H27.7478H27.7566H27.7654H27.7741H27.7828H27.7915H27.8001H27.8087H27.8173H27.8258H27.8343H27.8428H27.8512H27.8595H27.8679H27.8762H27.8845H27.8927H27.9009H27.909H27.9172H27.9253H27.9333H27.9413H27.9493H27.9573H27.9652H27.973H27.9809H27.9887H27.9965H28.0042H28.0119H28.0196H28.0272H28.0348H28.0423H28.0499H28.0574H28.0648H28.0722H28.0796H28.087H28.0943H28.1016H28.1088H28.1161H28.1232H28.1304H28.1375H28.1446H28.1516H28.1586H28.1656H28.1726H28.1795H28.1864H28.1932H28.2H28.2068H28.2136H28.2203H28.2269H28.2336H28.2402H28.2468H28.2533H28.2599H28.2663H28.2728H28.2792H28.2856H28.292H28.2983H28.3046H28.3108H28.3171H28.3233H28.3294H28.3356H28.3417H28.3477H28.3538H28.3598H28.3657H28.3717H28.3776H28.3835H28.3893H28.3951H28.4009H28.4067H28.4124H28.4181H28.4237H28.4294H28.435H28.4405H28.4461H28.4516H28.4571H28.4625H28.4679H28.4733H28.4787H28.484H28.4893H28.4946H28.4998H28.505H28.5102H28.5153H28.5205H28.5255H28.5306H28.5356H28.5406H28.5456H28.5505H28.5555H28.5603H28.5652H28.57H28.5748H28.5796H28.5843H28.589H28.5937H28.5984H28.603H28.6076H28.6122H28.6167H28.6212H28.6257H28.6302H28.6346H28.639H28.6434H28.6477H28.652H28.6563H28.6606H28.6648H28.669H28.6732H28.6773H28.6814H28.6855H28.6896H28.6937H28.6977H28.7017H28.7056H28.7096H28.7135H28.7173H28.7212H28.725H28.7288H28.7326H28.7364H28.7401H28.7438H28.7474H28.7511H28.7547H28.7583H28.7619H28.7654H28.7689H28.7724H28.7759H28.7793H28.7827H28.7861H28.7895H28.7928H28.7961H28.7994H28.8027H28.8059H28.8091H28.8123H28.8155H28.8186H28.8217H28.8248H28.8279H28.8309H28.8339H28.8369H28.8399H28.8428H28.8457H28.8486H28.8515H28.8543H28.8572H28.8599H28.8627H28.8655H28.8682H28.8709H28.8736H28.8762H28.8789H28.8815H28.8841H28.8866H28.8892H28.8917H28.8942H28.8967H28.8991H28.9015H28.9039H28.9063H28.9087H28.911H28.9133H28.9156H28.9179H28.9201H28.9224H28.9246H28.9267H28.9289H28.931H28.9331H28.9352H28.9373H28.9394H28.9414H28.9434H28.9454H28.9473H28.9493H28.9512H28.9531H28.955H28.9569H28.9587H28.9605H28.9623H28.9641H28.9658H28.9676H28.9693H28.971H28.9727H28.9743H28.9759H28.9775H28.9791H28.9807H28.9823H28.9838H28.9853H28.9868H28.9883H28.9897H28.9912H28.9926H28.994H28.9953H28.9967H28.998H28.9994H28.9998H29.0007H29.0008H29.0017H29.0019H29.0027H29.0032H29.0036H29.0044H29.0046H29.0055H29.0057H29.0064H29.0069H29.0074H29.0081H29.0083H29.0092H29.0101H29.0104H29.0109H29.0115H29.0118H29.0126H29.0127H29.0135H29.0137H29.0144H29.0148H29.0152H29.0158H29.0161H29.0169H29.0177H29.0179H29.0185H29.0189H29.0193H29.0199H29.0201H29.0209H29.0217H29.0218H29.0224H29.0227H29.0232H29.0236H29.0239H29.0245H29.0246H29.0254H29.0254H29.0261H29.0263H29.0268H29.0271H29.0275H29.0279H29.0282H29.0288H29.0288H29.0295H29.0295H29.0301H29.0303H29.0308H29.0311H29.0314H29.0318H29.032H29.0325H29.0327H29.0333H29.0338H29.0339H29.0344H29.0346H29.035H29.0353H29.0356H29.0359H29.0361H29.0365H29.0366H29.0372H29.0377H29.0382H29.0383H29.0387H29.0389H29.0392H29.0394H29.0396H29.0399H29.0401H29.0404H29.0406H29.0409H29.041H29.0414H29.0418H29.0422H29.0423H29.0426H29.0427H29.043H29.0432H29.0434H29.0436H29.0437H29.0439H29.0441H29.0443H29.0444H29.0447H29.0447H29.045H29.045H29.0453H29.0456H29.0459H29.0462H29.0464H29.0466H29.0469H29.0471H29.0471H29.0473H29.0473H29.0475H29.0475H29.0476H29.0477H29.0478H29.0479H29.0479H29.048H29.0481H29.0482H29.0485H29.0486H29.0487L29.0486 99.4997H29.4998V103V103.75L28.8075 103.461C28.3541 103.272 27.5202 103.051 26.4863 102.824C25.4647 102.6 24.2849 102.377 23.1632 102.18C22.0422 101.982 20.9829 101.811 20.2037 101.689C19.8141 101.628 19.4948 101.579 19.273 101.546L19.1701 101.53L19.0169 101.508L18.9501 101.498L18.9332 101.495L18.929 101.495L18.9279 101.494L18.9277 101.494L18.4998 101.432V101V96.4997V95.9997H18.9998H22.1394L22.5045 94.9044C22.5857 93.4946 22.6572 91.2945 22.6124 89.1978C22.5897 88.1328 22.537 87.1015 22.4417 86.2173C22.3452 85.3214 22.2087 84.6183 22.0356 84.1854C21.7625 83.5027 21.5998 82.6728 21.4812 81.8269C21.3995 81.2444 21.3359 80.6297 21.2741 80.033L21.2741 80.0329L21.2741 80.0328C21.2463 79.7642 21.2189 79.4992 21.1904 79.2424C21.0967 78.3993 20.9906 77.6378 20.8226 77.0316C20.6487 76.404 20.4384 76.0597 20.2224 75.9157C20.0421 75.7955 19.9095 75.6239 19.8095 75.4531C19.7075 75.2788 19.6224 75.0759 19.5495 74.8597C19.4038 74.4281 19.2892 73.8912 19.1938 73.3068C19.0176 72.2277 18.8962 70.916 18.7809 69.6706L18.7809 69.6705L18.7809 69.6704L18.7519 69.3585C18.6259 68.0033 18.5034 66.774 18.3244 65.9763C18.2849 65.7999 18.2445 65.6541 18.2041 65.5384C18.1247 65.6559 18.0432 65.8072 17.9617 65.9958C17.8303 66.3001 17.7109 66.6734 17.6013 67.1005C17.3817 67.9561 17.213 68.9803 17.0567 70.0121C17.0257 70.2166 16.9951 70.4217 16.9648 70.6257C16.8437 71.439 16.7253 72.2344 16.5917 72.9024C16.5079 73.3212 16.415 73.7068 16.3062 74.0269C16.2029 74.3305 16.0639 74.6427 15.8533 74.8532C15.8108 74.8958 15.7237 75.0324 15.6159 75.3275C15.5146 75.6047 15.4145 75.9652 15.315 76.394C15.116 77.2511 14.9309 78.3292 14.743 79.4569L14.6806 79.8322C14.514 80.835 14.3442 81.857 14.1617 82.7555C13.9596 83.7505 13.7305 84.6562 13.447 85.2233C13.3557 85.4059 13.2718 85.6988 13.2075 86.1044C13.1443 86.5027 13.1045 86.9792 13.0854 87.5098C13.0472 88.5708 13.0929 89.8163 13.1858 91.0238C13.2786 92.2305 13.4177 93.3878 13.5634 94.2697C13.6365 94.7118 13.7098 95.0766 13.7779 95.3407C13.8122 95.4735 13.8426 95.5714 13.8677 95.6369C13.8746 95.6549 13.8802 95.668 13.8843 95.6771L14.2068 95.9997H17.4997H17.9997V96.4997V98.4997V98.8673L17.6488 98.9769C16.1304 99.4514 13.8803 99.1968 11.9335 97.1026C10.0038 95.0269 8.40379 91.1831 8.00057 84.5299C7.49513 76.1902 9.38947 67.8614 12.229 61.362C13.6492 58.1115 15.3117 55.3048 17.0415 53.1765C18.7616 51.06 20.5888 49.5645 22.3528 49.0218C25.703 47.9909 28.1848 48.2426 30.158 48.9003C31.1357 49.2262 31.9776 49.6482 32.7191 50.0426C32.871 50.1234 33.0174 50.2022 33.159 50.2786C33.7227 50.5822 34.2127 50.8462 34.6857 51.0354C36.9721 51.95 40.7973 52.0382 48.2428 47.5709C52.1081 45.2517 56.5925 44.7504 60.7349 44.6249C61.7728 44.5934 62.794 44.5856 63.7802 44.5798L64.0235 44.5783C64.9249 44.5731 65.7946 44.5681 66.6278 44.5467C67.9235 44.5135 69.1095 44.4409 70.1589 44.273C69.0298 44.2209 67.5174 44.1911 65.7687 44.1566C65.2571 44.1466 64.7253 44.1361 64.177 44.1246C58.2619 44 50.4401 43.752 45.8662 42.4814C41.4141 41.2447 38.5953 41.1276 36.7197 41.2486C35.977 41.2966 35.3824 41.3813 34.8693 41.4544L34.8689 41.4545C34.7285 41.4745 34.5941 41.4936 34.4645 41.5109C33.8886 41.5877 33.3409 41.6404 32.8419 41.474C32.0898 41.2233 31.0377 40.8324 30.2936 40.359C29.9327 40.1295 29.5657 39.8329 29.3851 39.4597C29.288 39.2591 29.2399 39.0258 29.2889 38.777C29.3372 38.5321 29.4698 38.322 29.6459 38.146C30.7169 37.0757 80.9194 -11.569 170.183 23.5344L170.669 23.7255L170.456 24.2027C170.073 25.0661 169.154 26.1626 167.637 26.7757C166.107 27.394 164.016 27.5032 161.32 26.4663C158.263 25.2906 155.547 26.0967 153.031 27.3241C152.251 27.7048 151.52 28.1095 150.802 28.507C150.342 28.7621 149.886 29.0142 149.427 29.255C148.289 29.8514 147.158 30.3588 146.062 30.4958C145.455 30.5717 144.624 30.6829 143.623 30.8168C138.077 31.559 127.311 32.9997 120.5 32.9997C117.315 32.9997 115.174 33.1657 113.798 33.3693C113.109 33.4712 112.62 33.5812 112.292 33.6811C112.128 33.7311 112.011 33.7764 111.933 33.8133C111.879 33.8384 111.855 33.8547 111.848 33.8592L111.846 33.8601C111.765 33.9434 111.726 34.0185 111.716 34.0608L111.714 34.0665C111.711 34.076 111.711 34.0777 111.73 34.0986C111.777 34.1499 111.925 34.2582 112.305 34.3494C112.677 34.4385 113.222 34.4997 114 34.4997C114.516 34.4997 115.248 34.4912 116.139 34.4808H116.139H116.14H116.14C118.666 34.4515 122.469 34.4073 126.262 34.4998C128.83 34.5625 131.408 34.6879 133.6 34.9244C135.768 35.1584 137.633 35.5074 138.723 36.0525C139.715 36.5482 140.925 37.1071 142.248 37.7176L142.25 37.7186C143.569 38.3274 144.995 38.9855 146.406 39.6755C149.218 41.0501 152.021 42.5741 153.825 44.12C154.585 44.7719 155.713 45.1299 157.13 45.2354C158.541 45.3405 160.183 45.1911 161.911 44.8825C165.367 44.2653 169.084 43.0276 171.829 42.0298C174.833 40.937 177.399 42.33 179.368 43.8543C180.012 44.3526 180.624 44.892 181.169 45.3726L181.17 45.3729L181.17 45.3731C181.451 45.6204 181.714 45.8522 181.954 46.0547C182.32 46.3631 182.638 46.6079 182.914 46.7744C183.199 46.9458 183.386 46.9997 183.499 46.9997H183.511H183.523H183.534H183.546H183.558H183.569H183.581H183.593H183.604H183.616H183.628H183.639H183.651H183.662H183.674H183.685H183.697H183.709H183.72H183.732H183.743H183.755H183.766H183.778H183.789H183.801H183.812H183.823H183.835H183.846H183.858H183.869H183.881H183.892H183.903H183.915H183.926H183.937H183.949H183.96H183.972H183.983H183.994H184.006H184.017H184.028H184.039H184.051H184.062H184.073H184.085H184.096H184.107H184.118H184.13H184.141H184.152H184.163H184.175H184.186H184.197H184.208H184.22H184.231H184.242H184.253H184.264H184.276H184.287H184.298H184.309H184.32H184.332H184.343H184.354H184.365H184.376H184.387H184.399H184.41H184.421H184.432H184.443H184.454H184.466H184.477H184.488H184.499H184.51H184.521H184.532H184.544H184.555H184.566H184.577H184.588H184.599H184.61H184.622H184.633H184.644H184.655H184.666H184.677H184.688H184.699H184.711H184.722H184.733H184.744H184.755H184.766H184.777H184.789H184.8H184.811H184.822H184.833H184.844H184.855H184.867H184.878H184.889H184.9H184.911H184.922H184.934H184.945H184.956H184.967H184.978H184.989H185.001H185.012H185.023H185.034H185.045H185.057H185.068H185.079H185.09H185.101H185.113H185.124H185.135H185.146H185.158H185.169H185.18H185.191H185.203H185.214H185.225H185.236H185.248H185.259H185.27H185.282H185.293H185.304H185.316H185.327H185.338H185.35H185.361H185.372H185.384H185.395H185.406H185.418H185.429H185.44H185.452H185.463H185.475H185.486H185.498H185.509H185.521H185.532H185.543H185.555H185.566H185.578H185.589H185.601H185.612H185.624H185.636H185.647H185.659H185.67H185.682H185.693H185.705H185.717H185.728H185.74H185.752H185.763H185.775H185.787H185.798H185.81H185.822H185.833H185.845H185.857H185.869H185.88H185.892H185.904H185.916H185.928H185.94H185.951H185.963H185.975H185.987H185.999H186.011H186.023H186.035H186.047H186.059H186.071H186.083H186.095H186.107H186.119H186.131H186.143H186.155H186.167H186.179H186.191H186.203H186.215H186.228H186.24H186.252H186.264H186.276H186.289H186.301H186.313H186.326H186.338H186.35H186.362H186.375H186.387H186.4H186.412H186.424H186.437H186.449H186.462H186.474H186.487H186.499H186.512H186.524H186.537H186.55H186.562H186.575H186.588H186.6H186.613H186.626H186.638H186.651H186.664H186.677H186.689H186.702H186.715H186.728H186.741H186.754H186.767H186.78H186.793H186.806H186.819H186.832H186.845H186.858H186.871H186.884H186.897H186.91H186.923H186.937H186.95H186.963H186.976H186.99H187.003H187.016H187.03H187.043H187.056H187.07H187.083H187.097H187.11H187.124H187.137H187.151H187.164H187.178H187.192H187.205H187.219H187.233H187.246H187.26H187.274H187.288H187.301H187.315H187.329H187.343H187.357H187.371H187.385H187.399H187.413H187.427H187.441H187.455H187.469H187.483H187.497H187.512H187.526H187.54H187.554H187.569H187.583H187.597H187.612H187.626H187.641H187.655H187.67H187.684H187.699H187.713H187.728H187.742H187.757H187.772H187.786H187.801H187.816H187.831H187.846H187.86H187.875H187.89H187.905H187.92H187.935H187.95H187.965H187.98H187.995H188.011H188.026H188.041H188.056H188.072H188.087H188.102H188.117H188.133H188.148H188.164H188.179H188.195H188.21H188.226H188.242H188.257H188.273H188.289H188.304H188.32H188.336H188.352H188.368H188.383H188.399H188.415H188.431H188.447H188.463H188.48H188.496H188.512H188.528H188.544H188.561H188.577H188.593H188.61H188.626H188.642H188.659H188.675H188.692H188.708H188.725H188.742H188.758H188.775H188.792H188.809H188.825H188.842H188.859H188.876H188.893H188.91H188.927H188.944H188.961H188.979H188.996H189.013H189.03H189.047H189.065H189.082H189.1H189.117H189.135H189.152H189.17H189.187H189.205H189.222H189.24H189.258H189.276H189.294H189.311H189.329H189.347H189.365H189.383H189.401H189.419H189.438H189.456H189.474H189.492H189.511H189.529H189.547H189.566H189.584H189.603H189.621H189.64H189.658H189.677H189.696H189.714H189.733H189.752H189.771H189.79H189.809H189.828H189.847H189.866H189.885H189.904H189.923H189.943H189.962H189.981H190.001H190.02H190.04H190.059H190.079H190.098H190.118H190.138H190.157H190.177H190.197H190.217H190.237H190.257H190.277H190.297H190.317H190.337H190.357H190.377H190.397H190.418H190.438H190.458H190.479H190.499C192.442 46.9997 194.312 48.234 195.701 49.4338C196.799 50.382 197.711 51.4205 198.131 51.8988L198.131 51.8989C198.222 52.0024 198.29 52.0797 198.332 52.1241L198.34 52.1277C198.373 52.1418 198.427 52.16 198.506 52.1802C198.664 52.2207 198.883 52.2586 199.155 52.2926C199.697 52.3603 200.4 52.4065 201.145 52.4376C202.633 52.4996 204.249 52.4997 204.999 52.4997H205.292L205.436 52.7554C207.786 56.9526 210.954 63.943 212.834 71.3009C214.707 78.6344 215.331 86.454 212.447 92.2233L211.755 93.6063L211.506 92.0802C210.84 88.0036 209.719 82.2013 208.519 78.0253C207.913 75.9167 207.306 74.2955 206.759 73.5001C206.626 73.306 206.514 73.1888 206.43 73.1263C206.388 73.0953 206.362 73.0842 206.35 73.0805C206.337 73.0872 206.307 73.1066 206.262 73.1579C206.179 73.2516 206.075 73.4184 205.961 73.692C204.984 76.037 204.116 79.8225 203.429 83.6383C202.744 87.4417 202.245 91.2297 201.997 93.5529L201.872 94.7142L201.118 93.8226C200.203 92.7416 198.807 91.1209 197.591 89.772C196.982 89.0967 196.423 88.4946 195.993 88.0633C195.802 87.8708 195.642 87.7183 195.518 87.6102L195.508 87.6202C195.348 87.7778 195.129 88.0135 194.861 88.3155C194.328 88.9174 193.627 89.7551 192.861 90.6912C191.332 92.5619 189.559 94.8085 188.394 96.3066L187.697 97.2023L187.507 96.0838C186.924 92.6698 185.999 87.4996 185.121 83.0847C184.682 80.8764 184.256 78.8625 183.89 77.3534C183.707 76.5978 183.541 75.9765 183.398 75.5235C183.383 75.4753 183.368 75.4294 183.353 75.3858C183.291 75.5347 183.222 75.7132 183.149 75.9216C182.824 76.8491 182.447 78.2291 182.06 79.8179C181.288 82.9892 180.49 86.9296 179.991 89.5918L179.874 90.2134L179.296 89.9566L152.587 78.0857C148.843 81.3322 143.409 86.0855 138.97 90.0597C136.702 92.0903 134.697 93.9145 133.311 95.2297C132.774 95.7385 132.335 96.1669 132.01 96.4997ZM72.073 44.4694L72.0722 44.4692C72.071 44.4688 72.0683 44.4676 72.0644 44.4656C72.0704 44.4679 72.073 44.4693 72.073 44.4694ZM72.0083 43.7971C72.0112 43.7949 72.0131 43.7938 72.0136 43.7935C72.0142 43.7932 72.0127 43.7945 72.0083 43.7971ZM18.379 65.3306C18.379 65.3306 18.3779 65.3315 18.3757 65.3329C18.3779 65.3312 18.379 65.3305 18.379 65.3306ZM127 88H124.066L124.808 82.0643L125.001 85.5277L125.027 86H125.5H127V88ZM124.504 76.438L123.004 88.438L122.934 89H123.5H127.5H128V88.5V85.5V85H127.5H125.973L125.499 76.4723L124.504 76.438ZM152.824 80.1196C152.64 79.9619 152.368 79.96 152.181 80.115L134.681 94.615C134.519 94.7495 134.458 94.9713 134.53 95.1695C134.601 95.3678 134.789 95.5 135 95.5H169.5C169.709 95.5 169.897 95.3694 169.969 95.1729C170.042 94.9764 169.984 94.7555 169.824 94.6196L152.824 80.1196ZM168.143 94.5H136.387L152.495 81.1532L168.143 94.5ZM195.854 90.1464C195.751 90.0434 195.608 89.9905 195.462 90.0014C195.317 90.0124 195.184 90.0861 195.097 90.2034L188.097 99.7034C187.986 99.8553 187.969 100.057 188.054 100.226C188.139 100.394 188.311 100.5 188.5 100.5H205C205.202 100.5 205.385 100.378 205.462 100.191C205.539 100.005 205.497 99.7894 205.354 99.6464L195.854 90.1464ZM189.49 99.5L195.558 91.2647L203.793 99.5H189.49ZM123.5 90.5H123.043L123.002 90.9547L122.502 96.4547L122.452 97H123C123.249 97 123.587 97.1989 123.993 97.7324C124.378 98.2395 124.735 98.9309 125.041 99.6369C125.346 100.338 125.591 101.026 125.762 101.516L125.805 101.638C125.87 101.825 125.925 101.983 125.965 102.088L125.967 102.093C125.984 102.137 126.022 102.233 126.072 102.306L126.073 102.308C126.085 102.325 126.138 102.402 126.236 102.459C126.293 102.493 126.401 102.541 126.542 102.527C126.694 102.512 126.805 102.434 126.872 102.358C126.913 102.31 126.941 102.261 126.959 102.218C127.075 102.173 127.263 102.13 127.509 102.095C127.997 102.025 128.597 102 129 102H129.55L129.498 101.453L128.498 90.9526L128.455 90.5H128H123.5ZM123.539 96.0965L123.957 91.5H127.545L128.451 101.012C128.104 101.026 127.716 101.055 127.366 101.105C127.146 101.137 126.921 101.18 126.725 101.241L126.706 101.187C126.534 100.693 126.279 99.9749 125.959 99.2381C125.64 98.5066 125.247 97.7292 124.789 97.127C124.461 96.6962 124.043 96.2793 123.539 96.0965ZM170 96.5V95.9928L169.493 96.0001L134.493 96.5001L134 96.5071V97V113V113.5H134.5H143.5H144V113V101.5H157.5V112.5V113H158H169.5H170V112.5V96.5ZM135 112.5V97.4929L169 97.0072V112H158.5V101V100.5H158H143.5H143V101V112.5H135ZM188 101H187.5V101.5V114V114.5H188H191.5H192V114V108H200.5V114.5V115.831L201.376 114.829L204.876 110.829L205 110.688V110.5V101.5V101H204.5H188ZM188.5 113.5V102H204V110.312L201.5 113.169V107.5V107H201H191.5H191V107.5V113.5H188.5ZM173.098 102.01L172.5 101.89V102.5V108.5V109H173H175.5H176V108.5V103V102.59L175.598 102.51L173.098 102.01ZM173.5 108V103.11L175 103.41V108H173.5ZM177.121 103.015L176.5 102.86V103.5V108.5V109H177H179H179.5V108.5V104V103.61L179.121 103.515L177.121 103.015ZM177.5 108V104.14L178.5 104.39V108H177.5ZM180.621 104.015L180 103.86V104.5V108.5V109H180.5H182.5H183V108.5V105V104.61L182.621 104.515L180.621 104.015ZM181 108V105.14L182 105.39V108H181ZM15 105C14.8165 105 14.6478 105.101 14.5604 105.262C14.473 105.423 14.481 105.619 14.5812 105.773C17.1151 109.659 23.7821 116.698 29.7702 122.727C32.7732 125.751 35.6195 128.535 37.7148 130.562C38.7625 131.576 39.6227 132.401 40.221 132.973C40.5202 133.259 40.7539 133.481 40.9129 133.632L41.0942 133.804L41.1406 133.848L41.1524 133.859L41.1554 133.862L41.1562 133.863C41.1563 133.863 41.1564 133.863 41.5 133.5L41.1564 133.863C41.2991 133.998 41.5076 134.037 41.6893 133.963C49.0284 130.96 65.8576 124.477 74.6108 122.488C75.3174 122.327 75.8893 122.101 76.237 121.759C76.4222 121.577 76.555 121.35 76.5912 121.082C76.627 120.818 76.5618 120.567 76.4496 120.347C76.2348 119.924 75.8035 119.523 75.2695 119.142C74.7218 118.751 74.0088 118.342 73.1603 117.92C69.7729 116.234 64.0169 114.239 57.2609 112.331C43.7475 108.515 26.0696 105 15 105ZM74.3892 121.512C65.6608 123.496 49.0891 129.866 41.6099 132.915L41.6017 132.907C41.4434 132.757 41.2103 132.535 40.9118 132.25C40.3148 131.679 39.4562 130.856 38.4102 129.844C36.318 127.819 33.4768 125.04 30.4798 122.023C24.8611 116.365 18.7436 109.915 15.9542 106.008C26.9325 106.2 43.8884 109.594 56.9891 113.294C63.7331 115.198 69.4146 117.172 72.7147 118.815C73.5381 119.225 74.2 119.607 74.6885 119.956C75.1907 120.314 75.4566 120.6 75.5582 120.8C75.6042 120.89 75.602 120.935 75.6003 120.948C75.5991 120.956 75.5939 120.989 75.5355 121.046C75.3959 121.184 75.0576 121.361 74.3892 121.512ZM125.5 105H125V105.5V106V109H121.5H121V109.5V110H119.5V107.5V107H119H117H116.5V107.5V108V111H113V110.5H112.5H111V108V107.5H110.5H108.5H108V108V108.5V111.5H104.5H104H102.5V109V108.5H102H100H99.5V109V109.5V112.5H96H95.5V113V115V115.5H96H99.5V117V117.5H100H102H102.5V117V114.5H104H104.5H108V116V116.5H108.5H110.5H111V116V113.5H112.5V114H113H116.5V115.5V116H117H119H119.5V115.5V113H121H121.5V112.5V112H125V113.5V114H125.5H127.5H128V113.5V111H129.5H130V110.5V108.5V108H129.5H128V105.5V105H127.5H125.5ZM125.5 111H122V110H125.5H126V109.5V106H127V108.5V109H127.5H129V110H127.5H127V110.5V113H126V111.5V111H125.5ZM119 111H120.5V112H119H118.5V112.5V115H117.5V113.5V113H117H113.5V112H117H117.5V111.5V108H118.5V110.5V111H119ZM110.5 111.5H112V112.5H110.5H110V113V115.5H109V114V113.5H108.5H105V112.5H108.5H109V112V108.5H110V111V111.5H110.5ZM102 112.5H103.5V113.5H102H101.5V114V116.5H100.5V115V114.5H100H96.5V113.5H100H100.5V113V109.5H101.5V112V112.5H102ZM198.149 118.523C192.735 116.831 174.602 113.899 144.973 115.501C144.755 115.513 144.57 115.664 144.516 115.876C144.461 116.087 144.551 116.309 144.736 116.425C146.235 117.357 148.477 119.214 151.017 121.504C153.548 123.786 156.35 126.473 158.962 129.044C161.573 131.614 163.993 134.064 165.76 135.873C166.643 136.777 167.363 137.52 167.862 138.038L168.118 138.303C168.248 138.438 168.355 138.55 168.437 138.636L168.588 138.792L168.626 138.832L168.635 138.842L168.638 138.845L168.638 138.845C168.638 138.845 168.638 138.845 169 138.5L168.638 138.845L168.863 139.081L169.17 138.97C170.732 138.406 173.341 136.884 176.333 134.96C179.342 133.024 182.786 130.649 186.039 128.346C189.292 126.041 192.358 123.805 194.609 122.145C195.735 121.315 196.658 120.628 197.299 120.15C197.62 119.91 197.87 119.723 198.04 119.595L198.234 119.449L198.284 119.412L198.297 119.403L198.3 119.4L198.301 119.4C198.301 119.399 198.301 119.399 198 119L198.301 119.399L199.079 118.813L198.149 118.523ZM175.792 134.119C172.984 135.925 170.605 137.315 169.131 137.914C169 137.777 168.815 137.585 168.582 137.343C168.081 136.825 167.36 136.08 166.475 135.174C164.705 133.363 162.281 130.907 159.663 128.331C157.046 125.756 154.233 123.057 151.686 120.761C149.749 119.015 147.95 117.486 146.502 116.423C173.632 115.076 190.745 117.563 196.896 119.203L196.701 119.348C196.061 119.826 195.14 120.511 194.016 121.34C191.767 122.997 188.708 125.23 185.461 127.529C182.214 129.83 178.783 132.195 175.792 134.119ZM131.699 116.541L131.574 116.487L131.438 116.504L115.438 118.504L115.408 119.491C125.841 121.448 133.399 125.542 137.208 128.292C114.759 121.922 87.8883 123.732 76.9202 125.506L77.0062 126.5C104.677 126.154 126.582 133.535 137.185 138.73C107.306 130.608 77.2103 132.776 65.4071 135.009L65.522 136C87.6872 135.022 110.938 140.869 124.668 145.575C116.378 143.971 106.194 143.008 96.1521 142.463C82.5528 141.725 69.1636 141.75 60.9847 142L60.7764 142.947C61.0943 143.106 61.4615 143.427 61.8079 143.802C62.1469 144.169 62.4308 144.548 62.584 144.777L62.7324 145H63C77.4714 145 92.0227 147.844 100.094 149.927C99.7639 149.941 99.4229 149.958 99.0741 149.976C96.4921 150.109 93.4615 150.335 91.4585 150.502C91.2005 150.523 91.0015 150.738 91 150.997C90.9985 151.256 91.1948 151.473 91.4526 151.498C116.698 153.902 135.721 151.501 142.115 149.987L142.33 149.936L142.437 149.743C147.514 140.604 146.818 133.132 143.816 127.514C140.833 121.931 135.606 118.24 131.699 116.541ZM103.853 150.978C103.776 150.954 103.698 150.931 103.619 150.906C103.598 150.904 103.574 150.901 103.549 150.898C103.525 150.896 103.499 150.894 103.471 150.891C103.224 150.871 102.876 150.861 102.442 150.862C101.576 150.865 100.411 150.908 99.1259 150.974C98.7892 150.992 98.4449 151.011 98.0961 151.031C119.692 152.461 135.771 150.418 141.67 149.064C146.475 140.292 145.745 133.246 142.934 127.986C140.115 122.711 135.171 119.172 131.425 117.513L118.516 119.127C129.783 121.782 137.314 126.765 139.842 129.135C140.012 129.295 140.049 129.551 139.932 129.753C139.814 129.954 139.572 130.047 139.349 129.977C120.59 124.053 98.0139 124.294 84.3686 125.588C112.804 126.619 134.158 135.419 141.761 140.074C141.976 140.205 142.059 140.476 141.956 140.706C141.852 140.935 141.594 141.052 141.353 140.978C115.288 132.958 88.3254 133.247 73.05 134.918C97.9492 135.429 122.673 143.288 132.695 147.54C132.941 147.644 133.061 147.922 132.969 148.172C132.878 148.422 132.606 148.557 132.351 148.477C123.416 145.697 109.679 144.199 96.0979 143.462C83.2669 142.765 70.6208 142.75 62.3884 142.961C62.4412 143.015 62.4925 143.069 62.5421 143.123C62.8276 143.432 63.078 143.748 63.261 144C80.1704 144.04 97.1116 147.899 103.836 149.927C103.859 149.931 103.881 149.935 103.903 149.939C103.917 149.942 103.93 149.944 103.943 149.947C103.999 149.959 104.062 149.976 104.123 150C104.176 150.021 104.27 150.063 104.354 150.146C104.516 150.309 104.547 150.561 104.428 150.758C104.31 150.955 104.073 151.045 103.853 150.978ZM144.649 118.523C144.458 118.463 144.249 118.523 144.119 118.676C143.989 118.829 143.963 119.044 144.053 119.224C146.013 123.144 147.046 128.116 147.502 133.108C147.957 138.093 147.833 143.063 147.502 146.958C147.488 147.121 147.555 147.28 147.68 147.385C147.806 147.489 147.975 147.525 148.133 147.482L148 147C148.133 147.482 148.133 147.482 148.133 147.482L148.134 147.482L148.136 147.481L148.144 147.479L148.175 147.47L148.298 147.436C148.406 147.406 148.564 147.362 148.766 147.304C149.171 147.19 149.752 147.023 150.461 146.816C151.878 146.401 153.804 145.821 155.841 145.163C157.877 144.506 160.029 143.768 161.894 143.036C163.744 142.31 165.36 141.572 166.291 140.907C166.515 140.747 166.567 140.435 166.408 140.21L166 140.5C166.408 140.21 166.408 140.21 166.407 140.21L166.407 140.209L166.405 140.207L166.397 140.196L166.368 140.154C166.341 140.118 166.303 140.064 166.252 139.993C166.15 139.853 166.001 139.646 165.807 139.383C165.421 138.856 164.86 138.102 164.163 137.189C162.768 135.363 160.824 132.902 158.628 130.361C156.434 127.821 153.98 125.194 151.567 123.041C149.167 120.9 146.757 119.181 144.649 118.523ZM150.18 145.856C149.51 146.052 148.955 146.211 148.556 146.324C148.846 142.502 148.932 137.771 148.498 133.017C148.079 128.432 147.175 123.795 145.485 119.927C147.124 120.702 148.979 122.072 150.902 123.787C153.27 125.9 155.691 128.492 157.872 131.014C160.051 133.536 161.982 135.981 163.368 137.796C164.061 138.703 164.618 139.452 165.001 139.974C165.112 140.125 165.208 140.257 165.289 140.368C164.423 140.892 163.099 141.488 161.528 142.105C159.69 142.826 157.56 143.557 155.534 144.212C153.508 144.866 151.591 145.443 150.18 145.856Z" fill="white"/>
</svg>
